# xmcd CD database file
# Copyright (C) 2002 Ti Kan
# 
# Track frame offsets:
#     150
#     14163
#     24675
#     39340
#     54035
#     66540
#     79900
#     97955
#     113630
#     130448
#     141805
#     156458
# 
# Disc length: 2244 seconds
# 
# Revision: 1
# Processed by: cddbd v1.4PL0 Copyright (c) Steve Scherf et al.
# Submitted via: DiscPlay 4.0.4
# 
DISCID=a408c20c
DTITLE=Kim Solem and the Electric Spurs - In just one night
DYEAR=1900
DGENRE=
TTITLE0=In just one night
TTITLE1=Roadhouse Rendezvous
TTITLE2=Just you wait
TTITLE3=All of that
TTITLE4=I wonder who s holding you now
TTITLE5=The beauty within
TTITLE6=Treat me right
TTITLE7=The lines remain the same
TTITLE8=Midnight train
TTITLE9=My baby
TTITLE10=This time (I m gonna win your heart)
TTITLE11=Cryin  for my baby
EXTD=
EXTT0=Kim Solem
EXTT1=Kim Solem
EXTT2=Kim Solem
EXTT3=Kim Solem
EXTT4=Kim Solem
EXTT5=Kim Solem
EXTT6=Kim Solem
EXTT7=Kim Solem
EXTT8=Kim Solem
EXTT9=Kim Solem
EXTT10=Kim Solem
EXTT11=Author Unknown
PLAYORDER=
